<svg width="96" height="28" viewBox="0 0 96 28" fill="none" xmlns="http://www.w3.org/2000/svg">
<path d="M59.4609 4.9375L64.3828 18.0156L69.293 4.9375H73.125V22H70.1719V16.375L70.4648 8.85156L65.4258 22H63.3047L58.2773 8.86328L58.5703 16.375V22H55.6172V4.9375H59.4609ZM80.5945 22H77.7469V9.32031H80.5945V22ZM77.5711 6.02734C77.5711 5.58984 77.7078 5.22656 77.9813 4.9375C78.2625 4.64844 78.6609 4.50391 79.1766 4.50391C79.6922 4.50391 80.0906 4.64844 80.3719 4.9375C80.6531 5.22656 80.7938 5.58984 80.7938 6.02734C80.7938 6.45703 80.6531 6.81641 80.3719 7.10547C80.0906 7.38672 79.6922 7.52734 79.1766 7.52734C78.6609 7.52734 78.2625 7.38672 77.9813 7.10547C77.7078 6.81641 77.5711 6.45703 77.5711 6.02734ZM89.4586 13.4922L91.8727 9.32031H95.0367L91.1578 15.5664L95.1656 22H92.025L89.4938 17.6641L86.9742 22H83.8102L87.818 15.5664L83.9508 9.32031H87.0914L89.4586 13.4922Z" fill="#E1E4E8"/>
<g filter="url(#filter0_f)">
<g filter="url(#filter1_f)">
<path d="M11.0289 18.1284C11.0289 17.2708 10.7968 16.6139 10.3327 16.1576C9.86849 15.7013 9.03061 15.2568 7.81903 14.8241C6.60745 14.3914 5.6791 13.939 5.03397 13.4669C4.39671 12.987 3.9168 12.4442 3.59423 11.8384C3.27954 11.2247 3.12219 10.5245 3.12219 9.7378C3.12219 8.37674 3.57457 7.25563 4.47932 6.37448C5.39194 5.49333 6.58385 5.05276 8.05505 5.05276C9.06208 5.05276 9.95897 5.28091 10.7457 5.73722C11.5324 6.18566 12.1382 6.81112 12.5631 7.6136C12.9879 8.41607 13.2003 9.29722 13.2003 10.257H11.0289C11.0289 9.19495 10.7732 8.3728 10.2619 7.79061C9.75048 7.20843 9.01488 6.91733 8.05505 6.91733C7.18177 6.91733 6.50517 7.16122 6.02526 7.649C5.54535 8.13678 5.3054 8.82124 5.3054 9.70239C5.3054 10.4262 5.56502 11.032 6.08427 11.5198C6.60352 12.0075 7.40599 12.4442 8.49169 12.8297C10.1832 13.3883 11.3908 14.0767 12.1146 14.8949C12.8463 15.7131 13.2121 16.7831 13.2121 18.1048C13.2121 19.4973 12.7598 20.6145 11.855 21.4563C10.9503 22.2902 9.71901 22.7072 8.16126 22.7072C7.1621 22.7072 6.23768 22.4909 5.388 22.0582C4.54619 21.6176 3.8814 21.0039 3.39362 20.2172C2.9137 19.4226 2.67375 18.5139 2.67375 17.4911H4.84515C4.84515 18.5532 5.14018 19.3793 5.73024 19.9694C6.32816 20.5594 7.1385 20.8544 8.16126 20.8544C9.11322 20.8544 9.82915 20.6106 10.3091 20.1228C10.789 19.635 11.0289 18.9702 11.0289 18.1284ZM18.499 6.6105V9.70239H20.4226V11.39H18.499V19.3085C18.499 19.812 18.5816 20.1936 18.7469 20.4532C18.9121 20.7128 19.1953 20.8426 19.5965 20.8426C19.8719 20.8426 20.1512 20.7954 20.4344 20.701L20.4108 22.4712C19.9388 22.6285 19.4549 22.7072 18.9593 22.7072C18.1332 22.7072 17.5038 22.4122 17.0711 21.8221C16.6384 21.2321 16.422 20.3981 16.422 19.3203V11.39H14.4749V9.70239H16.422V6.6105H18.499ZM28.1877 11.6614C27.8966 11.6063 27.582 11.5788 27.2437 11.5788C26.1737 11.5788 25.4263 12.1649 25.0014 13.3371V22.4712H22.9126V9.70239H24.9424L24.9778 11.0005C25.5364 9.97775 26.3271 9.46637 27.3499 9.46637C27.6803 9.46637 27.9557 9.52144 28.1759 9.63159L28.1877 11.6614ZM34.6075 22.7072C33.0183 22.7072 31.7989 22.2352 30.9492 21.2911C30.0995 20.3391 29.6668 18.9466 29.6511 17.1135V15.5675C29.6511 13.6636 30.0641 12.1728 30.8902 11.0949C31.7241 10.0092 32.8846 9.46637 34.3715 9.46637C35.8663 9.46637 36.9835 9.94235 37.723 10.8943C38.4626 11.8463 38.8402 13.3293 38.8559 15.3433V16.7123H31.7281V17.0073C31.7281 18.3762 31.9838 19.3714 32.4951 19.993C33.0144 20.6145 33.7579 20.9252 34.7256 20.9252C35.3392 20.9252 35.8781 20.8112 36.3423 20.583C36.8144 20.347 37.2549 19.9772 37.664 19.4737L38.7497 20.7954C37.845 22.07 36.4643 22.7072 34.6075 22.7072ZM34.3715 11.2601C33.5061 11.2601 32.8649 11.5591 32.4479 12.157C32.031 12.7471 31.7949 13.6676 31.7399 14.9185H36.7671V14.6353C36.7121 13.4237 36.4918 12.5583 36.1063 12.039C35.7287 11.5198 35.1504 11.2601 34.3715 11.2601ZM47.9428 22.4712C47.8169 22.1958 47.7264 21.7317 47.6714 21.0787C46.9318 22.1644 45.9877 22.7072 44.8391 22.7072C43.6826 22.7072 42.7778 22.3846 42.1249 21.7395C41.4797 21.0865 41.1572 20.17 41.1572 18.9899C41.1572 17.6917 41.5977 16.6611 42.4789 15.898C43.36 15.1348 44.5677 14.7454 46.1018 14.7297H47.636V13.3725C47.636 12.6094 47.4668 12.0665 47.1285 11.744C46.7902 11.4214 46.2749 11.2601 45.5826 11.2601C44.9532 11.2601 44.4418 11.449 44.0484 11.8266C43.6551 12.1964 43.4584 12.6684 43.4584 13.2427H41.3696C41.3696 12.5897 41.5623 11.9682 41.9478 11.3782C42.3333 10.7802 42.8526 10.3121 43.5056 9.97382C44.1586 9.63552 44.8863 9.46637 45.6888 9.46637C46.9948 9.46637 47.9861 9.79287 48.6627 10.4459C49.3471 11.091 49.6972 12.0351 49.713 13.2781V19.7215C49.7208 20.705 49.8546 21.5586 50.1142 22.2824V22.4712H47.9428ZM45.1577 20.8072C45.6691 20.8072 46.1569 20.6656 46.6211 20.3824C47.0853 20.0992 47.4236 19.7451 47.636 19.3203V16.2756H46.4559C45.4646 16.2913 44.6818 16.5156 44.1074 16.9483C43.5331 17.3731 43.246 17.971 43.246 18.742C43.246 19.4658 43.3915 19.993 43.6826 20.3234C43.9737 20.646 44.4654 20.8072 45.1577 20.8072Z" fill="#EE1520"/>
</g>
</g>
<defs>
<filter id="filter0_f" x="1.573" y="0.37354" width="50.7241" height="22.7241" filterUnits="userSpaceOnUse" color-interpolation-filters="sRGB">
<feFlood flood-opacity="0" result="BackgroundImageFix"/>
<feBlend mode="normal" in="SourceGraphic" in2="BackgroundImageFix" result="shape"/>
<feGaussianBlur stdDeviation="0.0488256" result="effect1_foregroundBlur"/>
</filter>
<filter id="filter1_f" x="0.598618" y="2.97765" width="51.5906" height="21.8046" filterUnits="userSpaceOnUse" color-interpolation-filters="sRGB">
<feFlood flood-opacity="0" result="BackgroundImageFix"/>
<feBlend mode="normal" in="SourceGraphic" in2="BackgroundImageFix" result="shape"/>
<feGaussianBlur stdDeviation="1.03754" result="effect1_foregroundBlur"/>
</filter>
</defs>
</svg>
